<svg width="20" height="20" viewBox="0 0 20 20" fill="none" xmlns="http://www.w3.org/2000/svg">
<path fill-rule="evenodd" clip-rule="evenodd" d="M2.92913 2.92925C3.5009 2.35692 4.42762 2.35692 4.99939 2.92925C5.277 3.20713 5.41992 3.56885 5.42815 3.93306C5.42764 3.94466 5.42739 3.95632 5.42741 3.96805C5.42743 3.97876 5.42768 3.98941 5.42814 4.00001C5.41987 4.36415 5.27695 4.7258 4.99939 5.00364C4.42762 5.57597 3.5009 5.57597 2.92913 5.00364C2.35696 4.43089 2.35696 3.50199 2.92913 2.92925ZM6.833 4.71535C6.70472 5.20936 6.44724 5.67672 6.06057 6.06377C4.9029 7.22259 3.02563 7.22259 1.86795 6.06377C0.710683 4.90537 0.710683 3.02752 1.86795 1.86911C3.02563 0.710296 4.9029 0.710296 6.06057 1.86911C6.44667 2.25559 6.70395 2.72214 6.83242 3.21534L12.8256 3.2038C14.8779 3.2001 16.5421 4.86827 16.5344 6.92137L16.5343 6.92305L15.7844 6.9199H16.5344V6.92137V6.93369L16.5343 6.93686C16.5257 8.97612 14.8718 10.6271 12.833 10.6271H7.89863C6.68384 10.6271 5.69727 11.6136 5.69727 12.8314C5.69727 12.4172 5.36148 12.8314 4.94727 12.8314C4.94727 12.8314 4.19727 12.4172 4.19727 12.8314C4.19727 10.7866 5.85402 9.12712 7.89863 9.12712H12.833C14.0432 9.12712 15.0284 8.14677 15.0344 6.93198V6.93369H15.7844L15.0344 6.93051L15.0344 6.93198V6.9199L15.0344 6.91674C15.0395 5.69425 14.0487 4.70165 12.8284 4.7038L6.833 4.71535ZM4.19727 12.8314H4.94727H5.69727C5.69727 14.0499 6.68472 15.0364 7.90037 15.0357L15.9332 15.0333L15.2448 14.3442C14.952 14.0512 14.9523 13.5763 15.2453 13.2836C15.5384 12.9908 16.0132 12.991 16.306 13.2841L18.2718 15.2524C18.5648 15.5452 18.5649 16.0201 18.2721 16.3131L16.3059 18.2803C16.013 18.5733 15.5382 18.5734 15.2452 18.2805C14.9522 17.9877 14.9521 17.5129 15.2449 17.2199L15.9312 16.5333L7.90105 16.5357C5.85545 16.5368 4.19727 14.8774 4.19727 12.8314Z" fill="#3BF1E2"/>
</svg>
